<?xml version="1.0" standalone="no"?>
<!DOCTYPE svg PUBLIC "-//W3C//DTD SVG 20010904//EN"
 "http://www.w3.org/TR/2001/REC-SVG-20010904/DTD/svg10.dtd">
<svg version="1.0" xmlns="http://www.w3.org/2000/svg"
 width="45.000000pt" height="45.000000pt" viewBox="0 0 45.000000 45.000000"
 preserveAspectRatio="xMidYMid meet">

<g transform="translate(0.000000,45.000000) scale(0.100000,-0.100000)"
fill="#000000" stroke="none">
<path d="M208 423 c12 -2 30 -2 40 0 9 3 -1 5 -23 4 -22 0 -30 -2 -17 -4z"/>
<path d="M135 408 c-50 -27 -106 -97 -105 -130 1 -7 8 3 16 22 21 48 51 79 99
101 22 10 33 19 25 18 -8 0 -24 -5 -35 -11z"/>
<path d="M300 404 c48 -21 79 -51 101 -99 10 -22 19 -34 19 -27 1 47 -95 143
-142 142 -7 -1 3 -8 22 -16z"/>
<path d="M156 288 c-9 -13 -16 -43 -16 -69 0 -62 20 -79 93 -79 46 0 58 4 71
22 21 29 21 78 1 78 -9 0 -20 12 -26 27 -13 35 -26 43 -71 43 -27 0 -41 -6
-52 -22z m84 -28 c0 -6 -7 -13 -15 -16 -20 -8 -48 3 -40 16 8 13 55 13 55 0z
m30 -70 c0 -5 -20 -10 -45 -10 -25 0 -45 5 -45 10 0 6 20 10 45 10 25 0 45 -4
45 -10z"/>
<path d="M23 225 c0 -22 2 -30 4 -17 2 12 2 30 0 40 -3 9 -5 -1 -4 -23z"/>
<path d="M423 225 c0 -22 2 -30 4 -17 2 12 2 30 0 40 -3 9 -5 -1 -4 -23z"/>
<path d="M30 172 c-1 -47 95 -143 142 -142 7 0 -5 9 -27 19 -48 22 -78 53 -99
101 -8 19 -15 29 -16 22z"/>
<path d="M406 156 c-9 -37 -56 -87 -101 -107 -22 -10 -34 -19 -27 -19 24 0 69
28 100 64 30 34 48 73 39 82 -2 3 -7 -6 -11 -20z"/>
<path d="M208 23 c12 -2 30 -2 40 0 9 3 -1 5 -23 4 -22 0 -30 -2 -17 -4z"/>
</g>
</svg>
